# xmcd
# Copyright (C) 1995-1998 Ti Kan
#
# Track frame offsets:
#       150
#       11000
#       47842
#
# Disc length: 885 seconds
#
# Revision: 0
# Processed by: cddbd v1.5.2PL0 Copyright (c) Steve Scherf et al.
# Submitted via: CD-Transfer v1.0
#
DISCID=1d037303
DTITLE=Juliette And The Licks - Sticky Honey (Single)
DYEAR=06
DGENRE=
TTITLE0=Sticky Honey
TTITLE1=Are You Happy?
TTITLE2=Data Track
EXTD=
EXTT0=
EXTT1=
EXTT2=
PLAYORDER=
